<?xml version="1.0" encoding="utf-8"?>
<!-- Generator: Adobe Illustrator 24.0.0, SVG Export Plug-In . SVG Version: 6.00 Build 0)  -->
<svg version="1.1" id="Layer_1" xmlns="http://www.w3.org/2000/svg" xmlns:xlink="http://www.w3.org/1999/xlink" x="0px" y="0px"
	 viewBox="0 0 283.5 283.5" style="enable-background:new 0 0 283.5 283.5;" xml:space="preserve">
<g>
	<g>
		<polygon points="27.9,111.4 52.1,152.8 51.8,188.6 82.4,206 106.5,247.4 27.8,202.3 		"/>
		<polygon points="141.9,278.3 156.1,253.8 61.9,90.8 76.5,90.9 163.2,240.9 177.4,216.4 90.5,65.9 19,65.9 		"/>
		<polygon points="105.2,66 184.8,203.8 222,139.7 193.3,139.7 184.8,154.5 169,127 229.1,127 243.5,102.4 154.8,102.4 148.1,90.6 
			250.1,90.6 264.4,65.9 		"/>
		<g>
			<polygon points="63.1,50.8 111.1,50.8 141.9,32.7 172.6,50.7 220.3,50.7 141.8,5.2 			"/>
		</g>
		<polygon points="255.5,111.3 255.5,202.3 176.7,247.9 200.4,206.5 231.5,188.5 231.4,152.6 		"/>
	</g>
</g>
</svg>
